<mxfile host="app.diagrams.net" modified="2021-07-21T11:52:10.047Z" agent="5.0 (Windows NT 10.0; Win64; x64) AppleWebKit/537.36 (KHTML, like Gecko) Chrome/91.0.4472.124 Safari/537.36" etag="LiKkR5gTRmBhd8PAV08z" version="14.9.1" type="github">
  <diagram name="Current" id="Vlzp7xTOvuPKxcCdFjjD">
    <mxGraphModel dx="1278" dy="579" grid="1" gridSize="10" guides="1" tooltips="1" connect="1" arrows="1" fold="1" page="1" pageScale="1" pageWidth="827" pageHeight="1169" math="0" shadow="0">
      <root>
        <mxCell id="JwuOXEnyRKSzRNoaYuyo-0" />
        <mxCell id="JwuOXEnyRKSzRNoaYuyo-1" parent="JwuOXEnyRKSzRNoaYuyo-0" />
        <mxCell id="JwuOXEnyRKSzRNoaYuyo-5" value="Record" style="swimlane;fontStyle=0;align=center;verticalAlign=top;childLayout=stackLayout;horizontal=1;startSize=26;horizontalStack=0;resizeParent=1;resizeLast=0;collapsible=1;marginBottom=0;rounded=0;shadow=0;strokeWidth=1;" parent="JwuOXEnyRKSzRNoaYuyo-1" vertex="1">
          <mxGeometry x="30" y="610" width="160" height="392" as="geometry">
            <mxRectangle x="130" y="380" width="160" height="26" as="alternateBounds" />
          </mxGeometry>
        </mxCell>
        <mxCell id="JwuOXEnyRKSzRNoaYuyo-6" value="id_n" style="text;align=left;verticalAlign=top;spacingLeft=4;spacingRight=4;overflow=hidden;rotatable=0;points=[[0,0.5],[1,0.5]];portConstraint=eastwest;" parent="JwuOXEnyRKSzRNoaYuyo-5" vertex="1">
          <mxGeometry y="26" width="160" height="26" as="geometry" />
        </mxCell>
        <mxCell id="JwuOXEnyRKSzRNoaYuyo-7" value="phone" style="text;align=left;verticalAlign=top;spacingLeft=4;spacingRight=4;overflow=hidden;rotatable=0;points=[[0,0.5],[1,0.5]];portConstraint=eastwest;rounded=0;shadow=0;html=0;" parent="JwuOXEnyRKSzRNoaYuyo-5" vertex="1">
          <mxGeometry y="52" width="160" height="26" as="geometry" />
        </mxCell>
        <mxCell id="JwuOXEnyRKSzRNoaYuyo-8" value="address" style="text;align=left;verticalAlign=top;spacingLeft=4;spacingRight=4;overflow=hidden;rotatable=0;points=[[0,0.5],[1,0.5]];portConstraint=eastwest;rounded=0;shadow=0;html=0;" parent="JwuOXEnyRKSzRNoaYuyo-5" vertex="1">
          <mxGeometry y="78" width="160" height="26" as="geometry" />
        </mxCell>
        <mxCell id="JwuOXEnyRKSzRNoaYuyo-9" value="user" style="text;align=left;verticalAlign=top;spacingLeft=4;spacingRight=4;overflow=hidden;rotatable=0;points=[[0,0.5],[1,0.5]];portConstraint=eastwest;rounded=0;shadow=0;html=0;" parent="JwuOXEnyRKSzRNoaYuyo-5" vertex="1">
          <mxGeometry y="104" width="160" height="26" as="geometry" />
        </mxCell>
        <mxCell id="JwuOXEnyRKSzRNoaYuyo-10" value="tags" style="text;align=left;verticalAlign=top;spacingLeft=4;spacingRight=4;overflow=hidden;rotatable=0;points=[[0,0.5],[1,0.5]];portConstraint=eastwest;rounded=0;shadow=0;html=0;" parent="JwuOXEnyRKSzRNoaYuyo-5" vertex="1">
          <mxGeometry y="130" width="160" height="26" as="geometry" />
        </mxCell>
        <mxCell id="JwuOXEnyRKSzRNoaYuyo-11" value="name" style="text;align=left;verticalAlign=top;spacingLeft=4;spacingRight=4;overflow=hidden;rotatable=0;points=[[0,0.5],[1,0.5]];portConstraint=eastwest;rounded=0;shadow=0;html=0;" parent="JwuOXEnyRKSzRNoaYuyo-5" vertex="1">
          <mxGeometry y="156" width="160" height="26" as="geometry" />
        </mxCell>
        <mxCell id="JwuOXEnyRKSzRNoaYuyo-12" value="email" style="text;align=left;verticalAlign=top;spacingLeft=4;spacingRight=4;overflow=hidden;rotatable=0;points=[[0,0.5],[1,0.5]];portConstraint=eastwest;rounded=0;shadow=0;html=0;" parent="JwuOXEnyRKSzRNoaYuyo-5" vertex="1">
          <mxGeometry y="182" width="160" height="26" as="geometry" />
        </mxCell>
        <mxCell id="JwuOXEnyRKSzRNoaYuyo-13" value="" style="line;html=1;strokeWidth=1;align=left;verticalAlign=middle;spacingTop=-1;spacingLeft=3;spacingRight=3;rotatable=0;labelPosition=right;points=[];portConstraint=eastwest;" parent="JwuOXEnyRKSzRNoaYuyo-5" vertex="1">
          <mxGeometry y="208" width="160" height="38" as="geometry" />
        </mxCell>
        <mxCell id="JwuOXEnyRKSzRNoaYuyo-14" value="remove_phone" style="text;align=left;verticalAlign=top;spacingLeft=4;spacingRight=4;overflow=hidden;rotatable=0;points=[[0,0.5],[1,0.5]];portConstraint=eastwest;rounded=0;shadow=0;html=0;" parent="JwuOXEnyRKSzRNoaYuyo-5" vertex="1">
          <mxGeometry y="246" width="160" height="26" as="geometry" />
        </mxCell>
        <mxCell id="JwuOXEnyRKSzRNoaYuyo-15" value="add_phone" style="text;align=left;verticalAlign=top;spacingLeft=4;spacingRight=4;overflow=hidden;rotatable=0;points=[[0,0.5],[1,0.5]];portConstraint=eastwest;rounded=0;shadow=0;html=0;" parent="JwuOXEnyRKSzRNoaYuyo-5" vertex="1">
          <mxGeometry y="272" width="160" height="26" as="geometry" />
        </mxCell>
        <mxCell id="JwuOXEnyRKSzRNoaYuyo-16" value="add_id" style="text;align=left;verticalAlign=top;spacingLeft=4;spacingRight=4;overflow=hidden;rotatable=0;points=[[0,0.5],[1,0.5]];portConstraint=eastwest;rounded=0;shadow=0;html=0;" parent="JwuOXEnyRKSzRNoaYuyo-5" vertex="1">
          <mxGeometry y="298" width="160" height="26" as="geometry" />
        </mxCell>
        <mxCell id="JwuOXEnyRKSzRNoaYuyo-17" value="add_email" style="text;align=left;verticalAlign=top;spacingLeft=4;spacingRight=4;overflow=hidden;rotatable=0;points=[[0,0.5],[1,0.5]];portConstraint=eastwest;rounded=0;shadow=0;html=0;" parent="JwuOXEnyRKSzRNoaYuyo-5" vertex="1">
          <mxGeometry y="324" width="160" height="26" as="geometry" />
        </mxCell>
        <mxCell id="JwuOXEnyRKSzRNoaYuyo-18" value="add_address" style="text;align=left;verticalAlign=top;spacingLeft=4;spacingRight=4;overflow=hidden;rotatable=0;points=[[0,0.5],[1,0.5]];portConstraint=eastwest;rounded=0;shadow=0;html=0;" parent="JwuOXEnyRKSzRNoaYuyo-5" vertex="1">
          <mxGeometry y="350" width="160" height="26" as="geometry" />
        </mxCell>
        <mxCell id="JwuOXEnyRKSzRNoaYuyo-23" value="AddressBook" style="swimlane;fontStyle=0;align=center;verticalAlign=top;childLayout=stackLayout;horizontal=1;startSize=26;horizontalStack=0;resizeParent=1;resizeLast=0;collapsible=1;marginBottom=0;rounded=0;shadow=0;strokeWidth=1;" parent="JwuOXEnyRKSzRNoaYuyo-1" vertex="1">
          <mxGeometry x="210" y="610" width="250" height="162" as="geometry">
            <mxRectangle x="550" y="140" width="160" height="26" as="alternateBounds" />
          </mxGeometry>
        </mxCell>
        <mxCell id="JwuOXEnyRKSzRNoaYuyo-24" value="data" style="text;align=left;verticalAlign=top;spacingLeft=4;spacingRight=4;overflow=hidden;rotatable=0;points=[[0,0.5],[1,0.5]];portConstraint=eastwest;" parent="JwuOXEnyRKSzRNoaYuyo-23" vertex="1">
          <mxGeometry y="26" width="250" height="26" as="geometry" />
        </mxCell>
        <mxCell id="JwuOXEnyRKSzRNoaYuyo-25" value="" style="line;html=1;strokeWidth=1;align=left;verticalAlign=middle;spacingTop=-1;spacingLeft=3;spacingRight=3;rotatable=0;labelPosition=right;points=[];portConstraint=eastwest;" parent="JwuOXEnyRKSzRNoaYuyo-23" vertex="1">
          <mxGeometry y="52" width="250" height="8" as="geometry" />
        </mxCell>
        <mxCell id="JwuOXEnyRKSzRNoaYuyo-26" value="add_record&#xa;find_value&#xa;iterator&#xa;find_persons_with_birthday_in_n_days&#xa;find_persons_with_birthday_during_n_days&#xa;find_persons_birthday&#xa;" style="text;align=left;verticalAlign=top;spacingLeft=4;spacingRight=4;overflow=hidden;rotatable=0;points=[[0,0.5],[1,0.5]];portConstraint=eastwest;" parent="JwuOXEnyRKSzRNoaYuyo-23" vertex="1">
          <mxGeometry y="60" width="250" height="100" as="geometry" />
        </mxCell>
        <mxCell id="JwuOXEnyRKSzRNoaYuyo-39" value="Birthday" style="swimlane;fontStyle=0;align=center;verticalAlign=top;childLayout=stackLayout;horizontal=1;startSize=26;horizontalStack=0;resizeParent=1;resizeLast=0;collapsible=1;marginBottom=0;rounded=0;shadow=0;strokeWidth=1;" parent="JwuOXEnyRKSzRNoaYuyo-1" vertex="1">
          <mxGeometry x="30" y="1030" width="160" height="90" as="geometry">
            <mxRectangle x="340" y="380" width="170" height="26" as="alternateBounds" />
          </mxGeometry>
        </mxCell>
        <mxCell id="JwuOXEnyRKSzRNoaYuyo-40" value="birthday" style="text;align=left;verticalAlign=top;spacingLeft=4;spacingRight=4;overflow=hidden;rotatable=0;points=[[0,0.5],[1,0.5]];portConstraint=eastwest;" parent="JwuOXEnyRKSzRNoaYuyo-39" vertex="1">
          <mxGeometry y="26" width="160" height="26" as="geometry" />
        </mxCell>
        <mxCell id="JwuOXEnyRKSzRNoaYuyo-41" value="" style="line;html=1;strokeWidth=1;align=left;verticalAlign=middle;spacingTop=-1;spacingLeft=3;spacingRight=3;rotatable=0;labelPosition=right;points=[];portConstraint=eastwest;" parent="JwuOXEnyRKSzRNoaYuyo-39" vertex="1">
          <mxGeometry y="52" width="160" height="8" as="geometry" />
        </mxCell>
        <mxCell id="lIdF2me7N01zFQDFPlch-0" value="days_to_birthday" style="text;align=left;verticalAlign=top;spacingLeft=4;spacingRight=4;overflow=hidden;rotatable=0;points=[[0,0.5],[1,0.5]];portConstraint=eastwest;" parent="JwuOXEnyRKSzRNoaYuyo-39" vertex="1">
          <mxGeometry y="60" width="160" height="26" as="geometry" />
        </mxCell>
        <mxCell id="JwuOXEnyRKSzRNoaYuyo-49" value="NotesBook(UserList)" style="swimlane;fontStyle=0;align=center;verticalAlign=top;childLayout=stackLayout;horizontal=1;startSize=26;horizontalStack=0;resizeParent=1;resizeLast=0;collapsible=1;marginBottom=0;rounded=0;shadow=0;strokeWidth=1;" parent="JwuOXEnyRKSzRNoaYuyo-1" vertex="1">
          <mxGeometry x="480" y="610" width="160" height="250" as="geometry">
            <mxRectangle x="130" y="380" width="160" height="26" as="alternateBounds" />
          </mxGeometry>
        </mxCell>
        <mxCell id="JwuOXEnyRKSzRNoaYuyo-50" value="" style="line;html=1;strokeWidth=1;align=left;verticalAlign=middle;spacingTop=-1;spacingLeft=3;spacingRight=3;rotatable=0;labelPosition=right;points=[];portConstraint=eastwest;" parent="JwuOXEnyRKSzRNoaYuyo-49" vertex="1">
          <mxGeometry y="26" width="160" height="38" as="geometry" />
        </mxCell>
        <mxCell id="JwuOXEnyRKSzRNoaYuyo-51" value="add_note" style="text;align=left;verticalAlign=top;spacingLeft=4;spacingRight=4;overflow=hidden;rotatable=0;points=[[0,0.5],[1,0.5]];portConstraint=eastwest;rounded=0;shadow=0;html=0;" parent="JwuOXEnyRKSzRNoaYuyo-49" vertex="1">
          <mxGeometry y="64" width="160" height="26" as="geometry" />
        </mxCell>
        <mxCell id="JwuOXEnyRKSzRNoaYuyo-52" value="delete_note" style="text;align=left;verticalAlign=top;spacingLeft=4;spacingRight=4;overflow=hidden;rotatable=0;points=[[0,0.5],[1,0.5]];portConstraint=eastwest;rounded=0;shadow=0;html=0;" parent="JwuOXEnyRKSzRNoaYuyo-49" vertex="1">
          <mxGeometry y="90" width="160" height="26" as="geometry" />
        </mxCell>
        <mxCell id="JwuOXEnyRKSzRNoaYuyo-53" value="change_note" style="text;align=left;verticalAlign=top;spacingLeft=4;spacingRight=4;overflow=hidden;rotatable=0;points=[[0,0.5],[1,0.5]];portConstraint=eastwest;rounded=0;shadow=0;html=0;" parent="JwuOXEnyRKSzRNoaYuyo-49" vertex="1">
          <mxGeometry y="116" width="160" height="26" as="geometry" />
        </mxCell>
        <mxCell id="JwuOXEnyRKSzRNoaYuyo-54" value="sort_notes" style="text;align=left;verticalAlign=top;spacingLeft=4;spacingRight=4;overflow=hidden;rotatable=0;points=[[0,0.5],[1,0.5]];portConstraint=eastwest;rounded=0;shadow=0;html=0;" parent="JwuOXEnyRKSzRNoaYuyo-49" vertex="1">
          <mxGeometry y="142" width="160" height="26" as="geometry" />
        </mxCell>
        <mxCell id="JwuOXEnyRKSzRNoaYuyo-55" value="_str_" style="text;align=left;verticalAlign=top;spacingLeft=4;spacingRight=4;overflow=hidden;rotatable=0;points=[[0,0.5],[1,0.5]];portConstraint=eastwest;rounded=0;shadow=0;html=0;" parent="JwuOXEnyRKSzRNoaYuyo-49" vertex="1">
          <mxGeometry y="168" width="160" height="26" as="geometry" />
        </mxCell>
        <mxCell id="JwuOXEnyRKSzRNoaYuyo-56" value="find_note" style="text;align=left;verticalAlign=top;spacingLeft=4;spacingRight=4;overflow=hidden;rotatable=0;points=[[0,0.5],[1,0.5]];portConstraint=eastwest;rounded=0;shadow=0;html=0;" parent="JwuOXEnyRKSzRNoaYuyo-49" vertex="1">
          <mxGeometry y="194" width="160" height="26" as="geometry" />
        </mxCell>
        <mxCell id="JwuOXEnyRKSzRNoaYuyo-57" value="edit_note" style="text;align=left;verticalAlign=top;spacingLeft=4;spacingRight=4;overflow=hidden;rotatable=0;points=[[0,0.5],[1,0.5]];portConstraint=eastwest;rounded=0;shadow=0;html=0;" parent="JwuOXEnyRKSzRNoaYuyo-49" vertex="1">
          <mxGeometry y="220" width="160" height="26" as="geometry" />
        </mxCell>
        <mxCell id="lIdF2me7N01zFQDFPlch-3" style="edgeStyle=orthogonalEdgeStyle;rounded=0;orthogonalLoop=1;jettySize=auto;html=1;entryX=0.25;entryY=1;entryDx=0;entryDy=0;" parent="JwuOXEnyRKSzRNoaYuyo-1" source="JwuOXEnyRKSzRNoaYuyo-81" target="JwuOXEnyRKSzRNoaYuyo-23" edge="1">
          <mxGeometry relative="1" as="geometry" />
        </mxCell>
        <mxCell id="JwuOXEnyRKSzRNoaYuyo-81" value="" style="rhombus;whiteSpace=wrap;html=1;fillColor=#000000;" parent="JwuOXEnyRKSzRNoaYuyo-1" vertex="1">
          <mxGeometry x="190" y="810" width="10" height="10" as="geometry" />
        </mxCell>
        <mxCell id="lIdF2me7N01zFQDFPlch-5" value="CleanFolder" style="swimlane;fontStyle=0;align=center;verticalAlign=top;childLayout=stackLayout;horizontal=1;startSize=26;horizontalStack=0;resizeParent=1;resizeLast=0;collapsible=1;marginBottom=0;rounded=0;shadow=0;strokeWidth=1;" parent="JwuOXEnyRKSzRNoaYuyo-1" vertex="1">
          <mxGeometry x="660" y="610" width="190" height="140" as="geometry">
            <mxRectangle x="130" y="380" width="160" height="26" as="alternateBounds" />
          </mxGeometry>
        </mxCell>
        <mxCell id="lIdF2me7N01zFQDFPlch-6" value="" style="line;html=1;strokeWidth=1;align=left;verticalAlign=middle;spacingTop=-1;spacingLeft=3;spacingRight=3;rotatable=0;labelPosition=right;points=[];portConstraint=eastwest;" parent="lIdF2me7N01zFQDFPlch-5" vertex="1">
          <mxGeometry y="26" width="190" height="38" as="geometry" />
        </mxCell>
        <mxCell id="lIdF2me7N01zFQDFPlch-7" value="change_dist&#xa;normalize&#xa;print_recursive&#xa;delete_dir" style="text;align=left;verticalAlign=top;spacingLeft=4;spacingRight=4;overflow=hidden;rotatable=0;points=[[0,0.5],[1,0.5]];portConstraint=eastwest;rounded=0;shadow=0;html=0;" parent="lIdF2me7N01zFQDFPlch-5" vertex="1">
          <mxGeometry y="64" width="190" height="66" as="geometry" />
        </mxCell>
        <mxCell id="tDIv-gpKhzHGZDjObng3-0" style="edgeStyle=orthogonalEdgeStyle;rounded=0;orthogonalLoop=1;jettySize=auto;html=1;startArrow=diamond;startFill=1;endArrow=block;endFill=1;exitX=0;exitY=0.11;exitDx=0;exitDy=0;exitPerimeter=0;" parent="JwuOXEnyRKSzRNoaYuyo-1" source="lIdF2me7N01zFQDFPlch-21" edge="1">
          <mxGeometry relative="1" as="geometry">
            <mxPoint x="335" y="499" as="sourcePoint" />
            <mxPoint x="270" y="610" as="targetPoint" />
          </mxGeometry>
        </mxCell>
        <mxCell id="tDIv-gpKhzHGZDjObng3-3" style="edgeStyle=orthogonalEdgeStyle;rounded=0;orthogonalLoop=1;jettySize=auto;html=1;entryX=0.886;entryY=-0.001;entryDx=0;entryDy=0;entryPerimeter=0;startArrow=diamond;startFill=1;endArrow=block;endFill=1;" parent="JwuOXEnyRKSzRNoaYuyo-1" source="lIdF2me7N01zFQDFPlch-18" target="JwuOXEnyRKSzRNoaYuyo-49" edge="1">
          <mxGeometry relative="1" as="geometry">
            <Array as="points">
              <mxPoint x="622" y="499" />
            </Array>
          </mxGeometry>
        </mxCell>
        <mxCell id="lIdF2me7N01zFQDFPlch-18" value="Model" style="swimlane;fontStyle=0;align=center;verticalAlign=top;childLayout=stackLayout;horizontal=1;startSize=26;horizontalStack=0;resizeParent=1;resizeLast=0;collapsible=1;marginBottom=0;rounded=0;shadow=0;strokeWidth=1;" parent="JwuOXEnyRKSzRNoaYuyo-1" vertex="1">
          <mxGeometry x="340" y="410" width="250" height="178" as="geometry">
            <mxRectangle x="550" y="140" width="160" height="26" as="alternateBounds" />
          </mxGeometry>
        </mxCell>
        <mxCell id="lIdF2me7N01zFQDFPlch-19" value="book&#xa;notes_book" style="text;align=left;verticalAlign=top;spacingLeft=4;spacingRight=4;overflow=hidden;rotatable=0;points=[[0,0.5],[1,0.5]];portConstraint=eastwest;" parent="lIdF2me7N01zFQDFPlch-18" vertex="1">
          <mxGeometry y="26" width="250" height="44" as="geometry" />
        </mxCell>
        <mxCell id="lIdF2me7N01zFQDFPlch-20" value="" style="line;html=1;strokeWidth=1;align=left;verticalAlign=middle;spacingTop=-1;spacingLeft=3;spacingRight=3;rotatable=0;labelPosition=right;points=[];portConstraint=eastwest;" parent="lIdF2me7N01zFQDFPlch-18" vertex="1">
          <mxGeometry y="70" width="250" height="8" as="geometry" />
        </mxCell>
        <mxCell id="lIdF2me7N01zFQDFPlch-21" value="load_books&#xa;save_books" style="text;align=left;verticalAlign=top;spacingLeft=4;spacingRight=4;overflow=hidden;rotatable=0;points=[[0,0.5],[1,0.5]];portConstraint=eastwest;" parent="lIdF2me7N01zFQDFPlch-18" vertex="1">
          <mxGeometry y="78" width="250" height="100" as="geometry" />
        </mxCell>
        <mxCell id="lIdF2me7N01zFQDFPlch-22" value="ConsoleView" style="swimlane;fontStyle=0;align=center;verticalAlign=top;childLayout=stackLayout;horizontal=1;startSize=26;horizontalStack=0;resizeParent=1;resizeLast=0;collapsible=1;marginBottom=0;rounded=0;shadow=0;strokeWidth=1;" parent="JwuOXEnyRKSzRNoaYuyo-1" vertex="1">
          <mxGeometry x="880" y="407" width="250" height="580" as="geometry">
            <mxRectangle x="550" y="140" width="160" height="26" as="alternateBounds" />
          </mxGeometry>
        </mxCell>
        <mxCell id="lIdF2me7N01zFQDFPlch-23" value="esc_e" style="text;align=left;verticalAlign=top;spacingLeft=4;spacingRight=4;overflow=hidden;rotatable=0;points=[[0,0.5],[1,0.5]];portConstraint=eastwest;" parent="lIdF2me7N01zFQDFPlch-22" vertex="1">
          <mxGeometry y="26" width="250" height="44" as="geometry" />
        </mxCell>
        <mxCell id="lIdF2me7N01zFQDFPlch-24" value="" style="line;html=1;strokeWidth=1;align=left;verticalAlign=middle;spacingTop=-1;spacingLeft=3;spacingRight=3;rotatable=0;labelPosition=right;points=[];portConstraint=eastwest;" parent="lIdF2me7N01zFQDFPlch-22" vertex="1">
          <mxGeometry y="70" width="250" height="8" as="geometry" />
        </mxCell>
        <mxCell id="lIdF2me7N01zFQDFPlch-25" value="greete&#xa;register_or_authorize&#xa;register&#xa;authorize&#xa;choose_command&#xa;say_buy&#xa;notify_of_error&#xa;notify_of_message&#xa;add_note&#xa;help&#xa;delete_note&#xa;input_hashtag_to_edit_note&#xa;edite_note&#xa;find_note&#xa;print_notes_book&#xa;sort_notes&#xa;clarify_command&#xa;enter_number_of_pages&#xa;show_one_page_of_addressbook&#xa;enter_path_for_clean_folder&#xa;ask_to_add_field&#xa;input_name&#xa;input_email&#xa;input_phone&#xa;input_birthday&#xa;input_address&#xa;input_tags&#xa;input_id&#xa;input_birthday_search_type&#xa;input_for_birthday_1&#xa;input_for_birthday_2&#xa;input_for_virthday_3&#xa;print_persins_and_their_birthday&#xa;input_field_to_edit&#xa;" style="text;align=left;verticalAlign=top;spacingLeft=4;spacingRight=4;overflow=hidden;rotatable=0;points=[[0,0.5],[1,0.5]];portConstraint=eastwest;" parent="lIdF2me7N01zFQDFPlch-22" vertex="1">
          <mxGeometry y="78" width="250" height="502" as="geometry" />
        </mxCell>
        <mxCell id="lIdF2me7N01zFQDFPlch-26" value="ViewInterface" style="swimlane;fontStyle=2;align=center;verticalAlign=top;childLayout=stackLayout;horizontal=1;startSize=26;horizontalStack=0;resizeParent=1;resizeLast=0;collapsible=1;marginBottom=0;rounded=0;shadow=0;strokeWidth=1;" parent="JwuOXEnyRKSzRNoaYuyo-1" vertex="1">
          <mxGeometry x="1160" y="410" width="270" height="580" as="geometry">
            <mxRectangle x="550" y="140" width="160" height="26" as="alternateBounds" />
          </mxGeometry>
        </mxCell>
        <mxCell id="lIdF2me7N01zFQDFPlch-28" value="" style="line;html=1;strokeWidth=1;align=left;verticalAlign=middle;spacingTop=-1;spacingLeft=3;spacingRight=3;rotatable=0;labelPosition=right;points=[];portConstraint=eastwest;" parent="lIdF2me7N01zFQDFPlch-26" vertex="1">
          <mxGeometry y="26" width="270" height="8" as="geometry" />
        </mxCell>
        <mxCell id="lIdF2me7N01zFQDFPlch-29" value="greete&#xa;register_or_authorize&#xa;register&#xa;authorize&#xa;choose_command&#xa;say_buy&#xa;notify_of_error&#xa;notify_of_message&#xa;add_note&#xa;help&#xa;delete_note&#xa;input_hashtag_to_edit_note&#xa;edite_note&#xa;find_note&#xa;print_notes_book&#xa;sort_notes&#xa;clarify_command&#xa;enter_number_of_pages&#xa;show_one_page_of_addressbook&#xa;enter_path_for_clean_folder&#xa;ask_to_add_field&#xa;input_name&#xa;input_email&#xa;input_phone&#xa;input_birthday&#xa;input_address&#xa;input_tags&#xa;input_id&#xa;input_birthday_search_type&#xa;input_for_birthday_1&#xa;input_for_birthday_2&#xa;input_for_virthday_3&#xa;print_persins_and_their_birthday&#xa;input_field_to_edit&#xa;" style="text;align=left;verticalAlign=top;spacingLeft=4;spacingRight=4;overflow=hidden;rotatable=0;points=[[0,0.5],[1,0.5]];portConstraint=eastwest;" parent="lIdF2me7N01zFQDFPlch-26" vertex="1">
          <mxGeometry y="34" width="270" height="502" as="geometry" />
        </mxCell>
        <mxCell id="lIdF2me7N01zFQDFPlch-30" style="edgeStyle=orthogonalEdgeStyle;rounded=0;orthogonalLoop=1;jettySize=auto;html=1;entryX=0.997;entryY=0.418;entryDx=0;entryDy=0;entryPerimeter=0;endArrow=block;endFill=0;" parent="JwuOXEnyRKSzRNoaYuyo-1" source="lIdF2me7N01zFQDFPlch-29" target="lIdF2me7N01zFQDFPlch-25" edge="1">
          <mxGeometry relative="1" as="geometry" />
        </mxCell>
        <mxCell id="lIdF2me7N01zFQDFPlch-36" style="edgeStyle=orthogonalEdgeStyle;rounded=0;orthogonalLoop=1;jettySize=auto;html=1;entryX=0.221;entryY=0;entryDx=0;entryDy=0;entryPerimeter=0;endArrow=none;endFill=0;" parent="JwuOXEnyRKSzRNoaYuyo-1" source="lIdF2me7N01zFQDFPlch-31" target="lIdF2me7N01zFQDFPlch-5" edge="1">
          <mxGeometry relative="1" as="geometry" />
        </mxCell>
        <mxCell id="lIdF2me7N01zFQDFPlch-37" style="edgeStyle=orthogonalEdgeStyle;rounded=0;orthogonalLoop=1;jettySize=auto;html=1;entryX=0.568;entryY=-0.021;entryDx=0;entryDy=0;entryPerimeter=0;endArrow=block;endFill=1;startArrow=diamond;startFill=0;exitX=0.298;exitY=0.999;exitDx=0;exitDy=0;exitPerimeter=0;" parent="JwuOXEnyRKSzRNoaYuyo-1" source="lIdF2me7N01zFQDFPlch-34" target="lIdF2me7N01zFQDFPlch-18" edge="1">
          <mxGeometry relative="1" as="geometry" />
        </mxCell>
        <mxCell id="lIdF2me7N01zFQDFPlch-38" style="edgeStyle=orthogonalEdgeStyle;rounded=0;orthogonalLoop=1;jettySize=auto;html=1;entryX=0.25;entryY=0;entryDx=0;entryDy=0;startArrow=diamond;startFill=0;endArrow=block;endFill=1;exitX=0.769;exitY=1.002;exitDx=0;exitDy=0;exitPerimeter=0;" parent="JwuOXEnyRKSzRNoaYuyo-1" source="lIdF2me7N01zFQDFPlch-34" target="lIdF2me7N01zFQDFPlch-22" edge="1">
          <mxGeometry relative="1" as="geometry" />
        </mxCell>
        <mxCell id="lIdF2me7N01zFQDFPlch-31" value="Controller" style="swimlane;fontStyle=0;align=center;verticalAlign=top;childLayout=stackLayout;horizontal=1;startSize=26;horizontalStack=0;resizeParent=1;resizeLast=0;collapsible=1;marginBottom=0;rounded=0;shadow=0;strokeWidth=1;" parent="JwuOXEnyRKSzRNoaYuyo-1" vertex="1">
          <mxGeometry x="577" y="20" width="250" height="340" as="geometry">
            <mxRectangle x="550" y="140" width="160" height="26" as="alternateBounds" />
          </mxGeometry>
        </mxCell>
        <mxCell id="lIdF2me7N01zFQDFPlch-32" value="model&#xa;view" style="text;align=left;verticalAlign=top;spacingLeft=4;spacingRight=4;overflow=hidden;rotatable=0;points=[[0,0.5],[1,0.5]];portConstraint=eastwest;" parent="lIdF2me7N01zFQDFPlch-31" vertex="1">
          <mxGeometry y="26" width="250" height="44" as="geometry" />
        </mxCell>
        <mxCell id="lIdF2me7N01zFQDFPlch-33" value="" style="line;html=1;strokeWidth=1;align=left;verticalAlign=middle;spacingTop=-1;spacingLeft=3;spacingRight=3;rotatable=0;labelPosition=right;points=[];portConstraint=eastwest;" parent="lIdF2me7N01zFQDFPlch-31" vertex="1">
          <mxGeometry y="70" width="250" height="8" as="geometry" />
        </mxCell>
        <mxCell id="lIdF2me7N01zFQDFPlch-34" value="add&#xa;change&#xa;delete&#xa;clean_folder&#xa;birthday&#xa;find&#xa;show_find&#xa;show&#xa;exit&#xa;save&#xa;add_note&#xa;delete_note&#xa;edit_note&#xa;sort_notes&#xa;show_notes&#xa;help_func&#xa;handler" style="text;align=left;verticalAlign=top;spacingLeft=4;spacingRight=4;overflow=hidden;rotatable=0;points=[[0,0.5],[1,0.5]];portConstraint=eastwest;" parent="lIdF2me7N01zFQDFPlch-31" vertex="1">
          <mxGeometry y="78" width="250" height="262" as="geometry" />
        </mxCell>
      </root>
    </mxGraphModel>
  </diagram>
</mxfile>
